<svg xmlns="http://www.w3.org/2000/svg" width="52" height="52" viewBox="0 0 52 52">
  <g id="Group_582" data-name="Group 582" transform="translate(-1115 -1908.93)">
    <circle id="Ellipse_1" data-name="Ellipse 1" cx="26" cy="26" r="26" transform="translate(1115 1908.93)" fill="#07125b"/>
    <path id="bx-support" d="M14.078,3A11.091,11.091,0,0,0,3,14.078v4.589a2.143,2.143,0,0,0,2.216,2.058H6.324a1.108,1.108,0,0,0,1.108-1.108v-5.7a1.108,1.108,0,0,0-1.108-1.108H5.318a8.85,8.85,0,0,1,17.522,0H21.833a1.108,1.108,0,0,0-1.108,1.108v6.805a2.217,2.217,0,0,1-2.216,2.216H16.294V21.833H11.863v3.324H18.51a4.436,4.436,0,0,0,4.431-4.431,2.143,2.143,0,0,0,2.216-2.057v-4.59A11.091,11.091,0,0,0,14.078,3Z" transform="translate(1126.578 1920.615)" fill="#fff"/>
  </g>
</svg>
