<svg xmlns="http://www.w3.org/2000/svg" width="52" height="52" viewBox="0 0 52 52">
  <g id="Group_581" data-name="Group 581" transform="translate(-1115 -1809.068)">
    <circle id="Ellipse_1" data-name="Ellipse 1" cx="26" cy="26" r="26" transform="translate(1115 1809.068)" fill="#07125b"/>
    <path id="dollar" d="M18.9,14.654H14.244a2.692,2.692,0,1,1,0-5.384H21.7V7.406h-3.96V3.938H15.875V7.407H14.244a4.555,4.555,0,1,0,0,9.111H18.9a2.7,2.7,0,0,1,2.692,2.692v.207A2.7,2.7,0,0,1,18.9,22.108H11.017v1.864h4.857v3.262h1.864V23.972H18.9a4.561,4.561,0,0,0,4.556-4.556v-.207A4.561,4.561,0,0,0,18.9,14.654Z" transform="translate(1124.313 1819.13)" fill="#fff"/>
  </g>
</svg>
