<svg xmlns="http://www.w3.org/2000/svg" width="53" height="52" viewBox="0 0 53 52">
  <g id="Group_579" data-name="Group 579" transform="translate(-715 -1908.93)">
    <ellipse id="Ellipse_1" data-name="Ellipse 1" cx="26.5" cy="26" rx="26.5" ry="26" transform="translate(715 1908.93)" fill="#07125b"/>
    <g id="__TEMP__SVG__" transform="translate(731.252 1924.919)">
      <path id="Path_22" data-name="Path 22" d="M8.875,13.25A4.375,4.375,0,1,1,13.25,8.875,4.375,4.375,0,0,1,8.875,13.25Zm0-7A2.625,2.625,0,1,0,11.5,8.875,2.625,2.625,0,0,0,8.875,6.25Z" transform="translate(-4.5 -4.5)" fill="#fff"/>
      <path id="Path_23" data-name="Path 23" d="M4.5,24.263,24.262,4.5,25.5,5.738,5.737,25.5Z" transform="translate(-4.5 -4.5)" fill="#fff"/>
      <path id="Path_24" data-name="Path 24" d="M24.625,29A4.375,4.375,0,1,1,29,24.625,4.375,4.375,0,0,1,24.625,29Zm0-7a2.625,2.625,0,1,0,2.625,2.625A2.625,2.625,0,0,0,24.625,22Z" transform="translate(-8 -8)" fill="#fff"/>
    </g>
  </g>
</svg>
